# xmcd
#
# Track frame offsets: 
#        150
#        15319
#        48618
#        70035
#        88812
#        119384
#        142699
#        197391
#        219600
#
# Disc length: 3281 seconds
#
# Revision: 0
# Processed by: cddbd v1.4PL0 Copyright (c) Steve Scherf et al.
# Submitted via: ExactAudioCopy v0.90b4
#
DISCID=740ccf09
DTITLE=Buddy Guy - Sweat Tea
DYEAR=2001
DGENRE=Blues
TTITLE0=Done Got Old
TTITLE1=Baby Please Don´t Leave Me
TTITLE2=Look What All You Get
TTITLE3=Stay All Night
TTITLE4=Tramp
TTITLE5=She Got The Devil In Her
TTITLE6=I Gotta Try You Girl
TTITLE7=Who´s Been Foolin´You
TTITLE8=It´s A Jungle Out There
EXTD=
EXTT0=
EXTT1=
EXTT2=
EXTT3=
EXTT4=
EXTT5=
EXTT6=
EXTT7=
EXTT8=
PLAYORDER=
